<svg xmlns="http://www.w3.org/2000/svg" viewBox="0 0 800 600" role="img" aria-label="Abstract geometric composition of overlapping navy panels and a coral bar chart representing the Vantage OS dashboard project">
  <rect width="800" height="600" fill="#1A2A3D"/>
  <g opacity="0.5" stroke="#FFFFFF" stroke-opacity="0.08">
    <line x1="0" y1="150" x2="800" y2="150"/>
    <line x1="0" y1="300" x2="800" y2="300"/>
    <line x1="0" y1="450" x2="800" y2="450"/>
    <line x1="200" y1="0" x2="200" y2="600"/>
    <line x1="400" y1="0" x2="400" y2="600"/>
    <line x1="600" y1="0" x2="600" y2="600"/>
  </g>
  <rect x="60" y="330" width="380" height="220" rx="26" fill="#22364C" stroke="#FFFFFF" stroke-opacity="0.1"/>
  <g>
    <rect x="100" y="480" width="46" height="50" rx="9" fill="#5B646F"/>
    <rect x="160" y="450" width="46" height="80" rx="9" fill="#717982"/>
    <rect x="220" y="410" width="46" height="120" rx="9" fill="#ED524A"/>
    <rect x="280" y="440" width="46" height="90" rx="9" fill="#717982"/>
    <rect x="340" y="400" width="46" height="130" rx="9" fill="#ED524A"/>
  </g>
  <rect x="100" y="360" width="140" height="14" rx="7" fill="#FFFFFF" opacity="0.7"/>
  <circle cx="620" cy="200" r="100" fill="#ED524A" opacity="0.9"/>
  <circle cx="620" cy="200" r="100" fill="none" stroke="#1A2A3D" stroke-width="2"/>
  <rect x="470" y="360" width="270" height="150" rx="24" fill="#22364C" stroke="#FFFFFF" stroke-opacity="0.1"/>
  <rect x="500" y="396" width="120" height="16" rx="8" fill="#FFFFFF" opacity="0.7"/>
  <rect x="500" y="428" width="180" height="12" rx="6" fill="#969595"/>
  <rect x="500" y="454" width="90" height="12" rx="6" fill="#969595"/>
</svg>
